<svg width="16" height="16" viewBox="0 0 16 16" fill="none" xmlns="http://www.w3.org/2000/svg">
<rect x="2" y="2" width="12" height="12" rx="1" fill="#FF2056"/>
<path d="M5.84873 13V8.03H7.45173C7.79707 8.03 8.1004 8.09767 8.36173 8.233C8.62307 8.36367 8.82607 8.55033 8.97073 8.793C9.12007 9.031 9.19473 9.30867 9.19473 9.626C9.19473 9.948 9.12007 10.228 8.97073 10.466C8.82607 10.704 8.62307 10.8907 8.36173 11.026C8.1004 11.1567 7.79707 11.222 7.45173 11.222H6.84273V13H5.84873ZM6.84273 10.319H7.34673C7.62673 10.319 7.8344 10.2607 7.96973 10.144C8.10507 10.0273 8.17273 9.85467 8.17273 9.626C8.17273 9.39733 8.10507 9.22467 7.96973 9.108C7.8344 8.98667 7.62673 8.926 7.34673 8.926H6.84273V10.319ZM11.642 13.112C11.264 13.112 10.942 13.0397 10.676 12.895C10.41 12.7503 10.2023 12.545 10.053 12.279C9.90833 12.013 9.822 11.6933 9.794 11.32L10.795 11.271C10.823 11.481 10.8767 11.6583 10.956 11.803C11.0353 11.9477 11.1357 12.055 11.257 12.125C11.3783 12.195 11.523 12.23 11.691 12.23C11.8403 12.23 11.9663 12.209 12.069 12.167C12.1763 12.125 12.258 12.0643 12.314 11.985C12.37 11.901 12.398 11.8007 12.398 11.684C12.398 11.558 12.3677 11.446 12.307 11.348C12.2463 11.25 12.139 11.1613 11.985 11.082C11.8357 11.0027 11.6233 10.928 11.348 10.858C11.0167 10.774 10.7413 10.6737 10.522 10.557C10.3073 10.4403 10.1487 10.291 10.046 10.109C9.94333 9.927 9.892 9.69833 9.892 9.423C9.892 9.11967 9.95733 8.856 10.088 8.632C10.2233 8.40333 10.417 8.22833 10.669 8.107C10.9257 7.981 11.236 7.918 11.6 7.918C11.9547 7.918 12.258 7.98333 12.51 8.114C12.762 8.24467 12.958 8.43367 13.098 8.681C13.2427 8.92833 13.3267 9.22933 13.35 9.584L12.342 9.633C12.3187 9.46033 12.2743 9.311 12.209 9.185C12.1437 9.059 12.055 8.96333 11.943 8.898C11.8357 8.83267 11.7073 8.8 11.558 8.8C11.3573 8.8 11.1963 8.85133 11.075 8.954C10.9583 9.05667 10.9 9.19667 10.9 9.374C10.9 9.49067 10.928 9.591 10.984 9.675C11.0447 9.759 11.1473 9.83367 11.292 9.899C11.4413 9.96433 11.6443 10.032 11.901 10.102C12.279 10.1907 12.5777 10.3073 12.797 10.452C13.0163 10.5967 13.1727 10.767 13.266 10.963C13.3593 11.159 13.406 11.3877 13.406 11.649C13.406 11.9477 13.336 12.2067 13.196 12.426C13.056 12.6407 12.853 12.8087 12.587 12.93C12.3257 13.0513 12.0107 13.112 11.642 13.112Z" fill="white"/>
</svg>
