<svg width="1024" height="1024" viewBox="0 0 1024 1024" fill="none" xmlns="http://www.w3.org/2000/svg">
<rect width="1024" height="1024" rx="250" fill="#FF2056"/>
<path d="M251.269 847V421H388.669C418.269 421 444.269 426.8 466.669 438.4C489.069 449.6 506.469 465.6 518.869 486.4C531.669 506.8 538.069 530.6 538.069 557.8C538.069 585.4 531.669 609.4 518.869 629.8C506.469 650.2 489.069 666.2 466.669 677.8C444.269 689 418.269 694.6 388.669 694.6H336.469V847H251.269ZM336.469 617.2H379.669C403.669 617.2 421.469 612.2 433.069 602.2C444.669 592.2 450.469 577.4 450.469 557.8C450.469 538.2 444.669 523.4 433.069 513.4C421.469 503 403.669 497.8 379.669 497.8H336.469V617.2ZM747.234 854.2C716.434 854.2 690.634 849.4 669.834 839.8C649.034 829.8 633.034 816.8 621.834 800.8C611.034 784.4 604.634 766.2 602.634 746.2L683.034 742.6C686.634 755.8 693.434 766.4 703.434 774.4C713.434 782 728.234 785.8 747.834 785.8C766.634 785.8 780.434 783.6 789.234 779.2C798.034 774.8 802.434 768.2 802.434 759.4C802.434 753 800.834 748 797.634 744.4C794.434 740.4 788.434 736.8 779.634 733.6C770.834 730 757.634 726.6 740.034 723.4C707.634 716.6 681.834 709 662.634 700.6C643.834 691.8 630.234 681 621.834 668.2C613.834 655 609.834 638.6 609.834 619C609.834 600.6 614.634 583.8 624.234 568.6C633.834 553.4 648.434 541.2 668.034 532C687.634 522.8 712.234 518.2 741.834 518.2C773.834 518.2 799.634 523.4 819.234 533.8C839.234 544.2 854.234 557.6 864.234 574C874.234 590.4 880.634 607.8 883.434 626.2L802.434 629.8C800.834 621 797.434 613.4 792.234 607C787.034 600.6 780.234 595.6 771.834 592C763.434 588.4 753.434 586.6 741.834 586.6C724.634 586.6 712.234 590 704.634 596.8C697.034 603.2 693.234 610.6 693.234 619C693.234 626.6 695.234 632.8 699.234 637.6C703.234 642.4 710.434 646.6 720.834 650.2C731.634 653.8 746.634 657.6 765.834 661.6C797.034 667.6 821.234 674.8 838.434 683.2C855.634 691.2 867.834 701.2 875.034 713.2C882.234 724.8 885.834 739.6 885.834 757.6C885.834 777.6 880.234 794.8 869.034 809.2C858.234 823.6 842.434 834.8 821.634 842.8C801.234 850.4 776.434 854.2 747.234 854.2Z" fill="black"/>
</svg>
